<svg width="232" height="237" viewBox="0 0 232 237" fill="none" xmlns="http://www.w3.org/2000/svg">
<path d="M71.4767 43.4734L96.3428 33.5482L115.371 45.0551L116.149 115.277L118.521 198.084L97.3964 207.829L75.5737 197.409L71.4767 43.4734Z" fill="#FFF85B"/>
<path d="M178.785 153.476L181.706 179.3L155.886 191.151L97.3207 157.246L121.182 115.535L178.785 153.476Z" fill="#FFF85B"/>
<path d="M156.474 68.5352L180.961 81.6109L180.586 105.445L114.714 142.971L97.397 104.138L156.474 68.5352Z" fill="#FFF85B"/>
<path fill-rule="evenodd" clip-rule="evenodd" d="M184.443 78.4698L158.217 63.545L121.88 84.6709L121.908 42.8737L95.6818 27.9488L69.4503 43.1998L69.4223 84.997L69.4125 104.524L69.479 122.84L69.5806 132.582L69.4127 156.451L69.407 175.525L69.4096 197.496L95.6196 212.392L121.851 197.141L121.849 175.17L158.186 195.824L158.446 195.673L184.417 180.573L184.439 150.426L148.102 129.772L184.438 108.646L184.443 78.4698ZM115.278 46.7285L115.25 88.5257L98.9785 97.986L99.0253 37.4976L115.278 46.7285ZM76.0745 46.9974L92.3462 37.5371L92.3173 135.837L76.0455 145.297L76.0745 46.9974ZM69.407 175.525L69.4152 149.152L69.413 167.872L69.407 175.525ZM76.0455 145.297L92.3173 135.837L92.3208 180.332L76.0491 189.792L76.0455 145.297ZM115.244 193.373L95.6423 204.769L79.3727 195.509L98.974 184.113L98.974 131.779L115.237 140.217L115.244 193.373ZM158.18 188.217L121.842 167.563L121.845 148.843L174.451 178.757L158.18 188.217ZM177.809 154.281L177.79 172.972L125.183 143.058L141.455 133.598L177.809 154.281ZM115.237 140.217L98.974 131.779L158.215 97.5243L174.484 106.784L115.237 140.217ZM158.238 89.9006L157.977 90.0521L92.3196 127.808L92.3253 108.451L158.269 71.1637L177.842 82.3078L177.811 101.045L158.238 89.9006Z" fill="black"/>
</svg>
